<svg xmlns="http://www.w3.org/2000/svg" viewBox="0 0 640 550" width="640" height="550" xmlns:c2pa="http://c2pa.org/manifest"><metadata><c2pa:manifest>AAAWgmp1bWIAAAAeanVtZGMycGEAEQAQgAAAqgA4m3EDYzJwYQAAABZcanVtYgAAAEdqdW1kYzJtYQARABCAAACqADibcQN1cm46YzJwYToxNjE0N2Q1MS0wY2JiLTQ1MWEtOGUxYi1lMGIzZWMyY2M5ZjMAAAADl2p1bWIAAAApanVtZGMyYXMAEQAQgAAAqgA4m3EDYzJwYS5hc3NlcnRpb25zAAAAALxqdW1iAAAARGp1bWRjYm9yABEAEIAAAKoAOJtxE2MycGEuaW5ncmVkaWVudC52MwAAAAAYYzJzaHQW3/kuvPFtuZjtWFDZ6QIAAABwY2JvcqNpZGM6Zm9ybWF0bWltYWdlL3N2Zyt4bWxqaW5zdGFuY2VJRHgseG1wOmlpZDpiNDU3NDE1ZS0zNTBmLTQzNjAtOTkwNy1mYzYyYWJhMjAwYjBscmVsYXRpb25zaGlwaHBhcmVudE9mAAAB4mp1bWIAAABBanVtZGNib3IAEQAQgAAAqgA4m3ETYzJwYS5hY3Rpb25zLnYyAAAAABhjMnNofWZgu6JHKFuL8yqS++rj+AAAAZljYm9yomdhY3Rpb25zgqJmYWN0aW9ua2MycGEub3BlbmVkanBhcmFtZXRlcnOha2luZ3JlZGllbnRzgaJjdXJseC1zZWxmI2p1bWJmPWMycGEuYXNzZXJ0aW9ucy9jMnBhLmluZ3JlZGllbnQudjNkaGFzaFggAurrocpHrphsGL1k8SxZn+1T+dSfaGEKfRMkdeGyvDmkZmFjdGlvbngdY29tLmFudGhyb3BpYy5jbGF1ZGUucHJvdmlkZWRqcGFyYW1ldGVyc6F4H2NvbS5hbnRocm9waWMub3JpZ2luLWNvbmZpZGVuY2VndW5rbm93bmtkZXNjcmlwdGlvbnhmQ2xhdWRlIHByb3ZpZGVkIHRoaXMgZmlsZSBhdCB0aGUgcmVxdWVzdCBvZiBhIHVzZXIgYW5kIG1heSBoYXZlIGNyZWF0ZWQgb3IgbW9kaWZpZWQgdGhlIGZpbGUgY29udGVudHMubXNvZnR3YXJlQWdlbnShZG5hbWVmQ2xhdWRlcmFsbEFjdGlvbnNJbmNsdWRlZPUAAADIanVtYgAAAEBqdW1kY2JvcgARABCAAACqADibcRNjMnBhLmhhc2guZGF0YQAAAAAYYzJzaE4mgqBRC9HbM2AVQn5M9pEAAACAY2JvcqVjYWxnZnNoYTI1NmNwYWRNAAAAAAAAAAAAAAAAAGRoYXNoWCCg3lJ21PodAxlYUeQe0wNn6KH098fIckLs4ZBDPN97sGRuYW1lbmp1bWJmIG1hbmlmZXN0amV4Y2x1c2lvbnOBomVzdGFydBiWZmxlbmd0aBkeBAAAAj5qdW1iAAAAJ2p1bWRjMmNsABEAEIAAAKoAOJtxA2MycGEuY2xhaW0udjIAAAACD2Nib3KlY2FsZ2ZzaGEyNTZpc2lnbmF0dXJleE1zZWxmI2p1bWJmPS9jMnBhL3VybjpjMnBhOjE2MTQ3ZDUxLTBjYmItNDUxYS04ZTFiLWUwYjNlYzJjYzlmMy9jMnBhLnNpZ25hdHVyZWppbnN0YW5jZUlEeCx4bXA6aWlkOjBiZjRkMDEwLWIzN2ItNDJmYS05MDRjLTVjNjM2ZDhiNmUyNHJjcmVhdGVkX2Fzc2VydGlvbnODomN1cmx4LXNlbGYjanVtYmY9YzJwYS5hc3NlcnRpb25zL2MycGEuaW5ncmVkaWVudC52M2RoYXNoWCAC6uuhykeumGwYvWTxLFmf7VP51J9oYQp9EyR14bK8OaJjdXJseCpzZWxmI2p1bWJmPWMycGEuYXNzZXJ0aW9ucy9jMnBhLmFjdGlvbnMudjJkaGFzaFggvBJ2Mr+j1k2+63huLw/EdqqAwbDo8tLA74kOQzHQHbWiY3VybHgpc2VsZiNqdW1iZj1jMnBhLmFzc2VydGlvbnMvYzJwYS5oYXNoLmRhdGFkaGFzaFgg3jjAMmPcQzMOBc7A0ml5sKWsf7kjBaznJ7mAT5DoeZh0Y2xhaW1fZ2VuZXJhdG9yX2luZm+jZG5hbWVvQW50aHJvcGljIEZpbGVzZ3ZlcnNpb25lMS4wLjBrc3BlY1ZlcnNpb25lMi40LjAAABA4anVtYgAAAChqdW1kYzJjcwARABCAAACqADibcQNjMnBhLnNpZ25hdHVyZQAAABAIY2JvctKEWQISogEmGCFZAgowggIGMIIBjaADAgECAhRA5aAK7sI50L64g/oGQgU9Z1UTADAKBggqhkjOPQQDAzBJMRcwFQYDVQQKEw5BbnRocm9waWMsIFBCQzEuMCwGA1UEAxMlQW50aHJvcGljIENvbnRlbnQgQ3JlZGVudGlhbHMgUm9vdCBDQTAeFw0yNjA4MDcxODQzNTZaFw0yODA4MDYxOTQzNTZaMEQxFzAVBgNVBAoTDkFudGhyb3BpYywgUEJDMSkwJwYDVQQDEyBBbnRocm9waWMgQ2xhdWRlIENvbnRlbnQgU2lnbmluZzBZMBMGByqGSM49AgEGCCqGSM49AwEHA0IABJh6CmvLUBgFFNU0vUKlOVtE6djd17L5SuwX0LemFisBM3dkd/3cyjxFA3Qo5S46fX0/ihY0VZ7mfb9KF703t5OjWDBWMA4GA1UdDwEB/wQEAwIHgDAVBgNVHSUEDjAMBgorBgEEAYPoXgIBMAwGA1UdEwEB/wQCMAAwHwYDVR0jBBgwFoAUzlHiBIFOZFsj+OPEz5o+nMHXXMIwCgYIKoZIzj0EAwMDZwAwZAIwMXMdFJ4BetLLVY7ORuE9noqbbAZOZn/aArXyTwFAZfKrPzxF2vPoJNf1+UCdg1XGAjBwX1zd9WGqYkqmL5SFqw1QySjr1zJfpJM9+1rdDwSPLMOPOjKuiXjoU/pUUeG9RwmhY3BhZFkNngAAAAAAAAAAAAAAAAAAAAAAAAAAAAAAAAAAAAAAAAAAAAAAAAAAAAAAAAAAAAAAAAAAAAAAAAAAAAAAAAAAAAAAAAAAAAAAAAAAAAAAAAAAAAAAAAAAAAAAAAAAAAAAAAAAAAAAAAAAAAAAAAAAAAAAAAAAAAAAAAAAAAAAAAAAAAAAAAAAAAAAAAAAAAAAAAAAAAAAAAAAAAAAAAAAAAAAAAAAAAAAAAAAAAAAAAAAAAAAAAAAAAAAAAAAAAAAAAAAAAAAAAAAAAAAAAAAAAAAAAAAAAAAAAAAAAAAAAAAAAAAAAAAAAAAAAAAAAAAAAAAAAAAAAAAAAAAAAAAAAAAAAAAAAAAAAAAAAAAAAAAAAAAAAAAAAAAAAAAAAAAAAAAAAAAAAAAAAAAAAAAAAAAAAAAAAAAAAAAAAAAAAAAAAAAAAAAAAAAAAAAAAAAAAAAAAAAAAAAAAAAAAAAAAAAAAAAAAAAAAAAAAAAAAAAAAAAAAAAAAAAAAAAAAAAAAAAAAAAAAAAAAAAAAAAAAAAAAAAAAAAAAAAAAAAAAAAAAAAAAAAAAAAAAAAAAAAAAAAAAAAAAAAAAAAAAAAAAAAAAAAAAAAAAAAAAAAAAAAAAAAAAAAAAAAAAAAAAAAAAAAAAAAAAAAAAAAAAAAAAAAAAAAAAAAAAAAAAAAAAAAAAAAAAAAAAAAAAAAAAAAAAAAAAAAAAAAAAAAAAAAAAAAAAAAAAAAAAAAAAAAAAAAAAAAAAAAAAAAAAAAAAAAAAAAAAAAAAAAAAAAAAAAAAAAAAAAAAAAAAAAAAAAAAAAAAAAAAAAAAAAAAAAAAAAAAAAAAAAAAAAAAAAAAAAAAAAAAAAAAAAAAAAAAAAAAAAAAAAAAAAAAAAAAAAAAAAAAAAAAAAAAAAAAAAAAAAAAAAAAAAAAAAAAAAAAAAAAAAAAAAAAAAAAAAAAAAAAAAAAAAAAAAAAAAAAAAAAAAAAAAAAAAAAAAAAAAAAAAAAAAAAAAAAAAAAAAAAAAAAAAAAAAAAAAAAAAAAAAAAAAAAAAAAAAAAAAAAAAAAAAAAAAAAAAAAAAAAAAAAAAAAAAAAAAAAAAAAAAAAAAAAAAAAAAAAAAAAAAAAAAAAAAAAAAAAAAAAAAAAAAAAAAAAAAAAAAAAAAAAAAAAAAAAAAAAAAAAAAAAAAAAAAAAAAAAAAAAAAAAAAAAAAAAAAAAAAAAAAAAAAAAAAAAAAAAAAAAAAAAAAAAAAAAAAAAAAAAAAAAAAAAAAAAAAAAAAAAAAAAAAAAAAAAAAAAAAAAAAAAAAAAAAAAAAAAAAAAAAAAAAAAAAAAAAAAAAAAAAAAAAAAAAAAAAAAAAAAAAAAAAAAAAAAAAAAAAAAAAAAAAAAAAAAAAAAAAAAAAAAAAAAAAAAAAAAAAAAAAAAAAAAAAAAAAAAAAAAAAAAAAAAAAAAAAAAAAAAAAAAAAAAAAAAAAAAAAAAAAAAAAAAAAAAAAAAAAAAAAAAAAAAAAAAAAAAAAAAAAAAAAAAAAAAAAAAAAAAAAAAAAAAAAAAAAAAAAAAAAAAAAAAAAAAAAAAAAAAAAAAAAAAAAAAAAAAAAAAAAAAAAAAAAAAAAAAAAAAAAAAAAAAAAAAAAAAAAAAAAAAAAAAAAAAAAAAAAAAAAAAAAAAAAAAAAAAAAAAAAAAAAAAAAAAAAAAAAAAAAAAAAAAAAAAAAAAAAAAAAAAAAAAAAAAAAAAAAAAAAAAAAAAAAAAAAAAAAAAAAAAAAAAAAAAAAAAAAAAAAAAAAAAAAAAAAAAAAAAAAAAAAAAAAAAAAAAAAAAAAAAAAAAAAAAAAAAAAAAAAAAAAAAAAAAAAAAAAAAAAAAAAAAAAAAAAAAAAAAAAAAAAAAAAAAAAAAAAAAAAAAAAAAAAAAAAAAAAAAAAAAAAAAAAAAAAAAAAAAAAAAAAAAAAAAAAAAAAAAAAAAAAAAAAAAAAAAAAAAAAAAAAAAAAAAAAAAAAAAAAAAAAAAAAAAAAAAAAAAAAAAAAAAAAAAAAAAAAAAAAAAAAAAAAAAAAAAAAAAAAAAAAAAAAAAAAAAAAAAAAAAAAAAAAAAAAAAAAAAAAAAAAAAAAAAAAAAAAAAAAAAAAAAAAAAAAAAAAAAAAAAAAAAAAAAAAAAAAAAAAAAAAAAAAAAAAAAAAAAAAAAAAAAAAAAAAAAAAAAAAAAAAAAAAAAAAAAAAAAAAAAAAAAAAAAAAAAAAAAAAAAAAAAAAAAAAAAAAAAAAAAAAAAAAAAAAAAAAAAAAAAAAAAAAAAAAAAAAAAAAAAAAAAAAAAAAAAAAAAAAAAAAAAAAAAAAAAAAAAAAAAAAAAAAAAAAAAAAAAAAAAAAAAAAAAAAAAAAAAAAAAAAAAAAAAAAAAAAAAAAAAAAAAAAAAAAAAAAAAAAAAAAAAAAAAAAAAAAAAAAAAAAAAAAAAAAAAAAAAAAAAAAAAAAAAAAAAAAAAAAAAAAAAAAAAAAAAAAAAAAAAAAAAAAAAAAAAAAAAAAAAAAAAAAAAAAAAAAAAAAAAAAAAAAAAAAAAAAAAAAAAAAAAAAAAAAAAAAAAAAAAAAAAAAAAAAAAAAAAAAAAAAAAAAAAAAAAAAAAAAAAAAAAAAAAAAAAAAAAAAAAAAAAAAAAAAAAAAAAAAAAAAAAAAAAAAAAAAAAAAAAAAAAAAAAAAAAAAAAAAAAAAAAAAAAAAAAAAAAAAAAAAAAAAAAAAAAAAAAAAAAAAAAAAAAAAAAAAAAAAAAAAAAAAAAAAAAAAAAAAAAAAAAAAAAAAAAAAAAAAAAAAAAAAAAAAAAAAAAAAAAAAAAAAAAAAAAAAAAAAAAAAAAAAAAAAAAAAAAAAAAAAAAAAAAAAAAAAAAAAAAAAAAAAAAAAAAAAAAAAAAAAAAAAAAAAAAAAAAAAAAAAAAAAAAAAAAAAAAAAAAAAAAAAAAAAAAAAAAAAAAAAAAAAAAAAAAAAAAAAAAAAAAAAAAAAAAAAAAAAAAAAAAAAAAAAAAAAAAAAAAAAAAAAAAAAAAAAAAAAAAAAAAAAAAAAAAAAAAAAAAAAAAAAAAAAAAAAAAAAAAAAAAAAAAAAAAAAAAAAAAAAAAAAAAAAAAAAAAAAAAAAAAAAAAAAAAAAAAAAAAAAAAAAAAAAAAAAAAAAAAAAAAAAAAAAAAAAAAAAAAAAAAAAAAAAAAAAAAAAAAAAAAAAAAAAAAAAAAAAAAAAAAAAAAAAAAAAAAAAAAAAAAAAAAAAAAAAAAAAAAAAAAAAAAAAAAAAAAAAAAAAAAAAAAAAAAAAAAAAAAAAAAAAAAAAAAAAAAAAAAAAAAAAAAAAAAAAAAAAAAAAAAAAAAAAAAAAAAAAAAAAAAAAAAAAAAAAAAAAAAAAAAAAAAAAAAAAAAAAAAAAAAAAAAAAAAAAAAAAAAAAAAAAAAAAAAAAAAAAAAAAAAAAAAAAAAAAAAAAAAAAAAAAAAAAAAAAAAAAAAAAAAAAAAAAAAAAAAAAAAAAAAAAAAAAAAAAAAAAAAAAAAAAAAAAAAAAAAAAAAAAAAAAAAAAAAAAAAAAAAAAAAAAAAAAAAAAAAAAAAAAAAAAAAAAAAAAAAAAAAAAAAAAAAAAAAAAAAAAAAAAAAAAAAAAAAAAAAAAAAAAAAAAAAAAAAAAAAAAAAAAAAAAAAAAAAAAAAAAAAAAAAAAAAAAAAAAAAAAAAAAAAAAAAAAAAAAAAAAAAAAAAAAAAAAAAAAAAAAAAAAAAAAAAAAAAAAAAAAAAAAAAAAAAAAAAAAAAAAAAAAAAAAAAAAAAAAAAAAAAAAAAAAAAAAAAAAAAAAAAAAAAAAAAAAAAAAAAAAAAAAAAAAAAAAAAAAAAAAAAAAAAAAAAAAAAAAAAAAAAAAAAAAAAAAAAAAAAAAAAAAAAAAAAAAAAAAAAAAAAAAAAAAAAAAAAAAAAAAAAAAAAAAAAAAAAAAAAAAAAAAAAAAAAAAAAAAAAAAAAAAAAAAAAAAAAAAAAAAAAAAAAAAAAAAAAAAAAAAAAAAAAAAAAAAAAAAAAAAAAAAAAAAAAAAAAAAAAAAAAAAAAAAAAAAAAAAAAAAAAAAAAAAAAAAAAAAAAAAAAAAAAAAAAAAAAAAAAAAAAAAAAAAAAAAAAAAAAAAAAAAAAAAAAAAAAAAAAAAAAAAAAAAAAAAAAAAAAAAAAAAAAAAAAAAAAAAAAAAAAAAAAAAAAAAAAAAAAAAAAAAAAAAAAAAAAAAAAAAAAAAAAAAAAAAAAAAAAAAAAAAAAAAAAAAAAAAAAAAAAAAAAAAAAAAAAAAAAAAAAAAAAAAAAAAAAAAAAAAAAAAAAAAAAAAAAAAAAAAAAAAAAAAAAAAAAAAAAAAAAAAAAAAAAAAAAAAAAAAAAAAAAAAAAAAAAAAAAAAAAAAAAAAAAAAAAAAAAAAAAAAAAAAAAAAAAAAAAAAAAAAAAAAAAAAAAAAAAAAAAAAAAAAAAAAAAAAAAAAAAAAAAAAAAAAAAAAAAAAAAAAAAAAAAAAAAAAAAAAAAAAAAAAAAAAAAAAAAAAAAAAAAAAAAAAAAAAAAAAAAAAAAAAAAAAAAAAAAAAAAAAAAAAAAAAAAAAAAAAAAAAAAAAAAAAAAAAAAAAAAAAAAAAAAAAAAAAAAAAAAAAAAAAAPZYQOYqcu30lhib+ZJfCItUfX7M0ytrHGm1zfjh1F0rdx3DNISFbcI8+6HRFJ9+eoNlsW8vp7ZbS4pHlhwuqs5rHIs=</c2pa:manifest></metadata><path d="M0 0 C2.8 0 5.5 -0 8.3 -0 C29.7 -0.1 58.3 1.4 74.8 16.5 C86.9 29.3 83.9 49.3 83.6 65.8 C83.2 79.7 81.9 93.5 80.5 107.3 C80.3 108.8 80.2 110.3 80 111.9 C79.6 116.2 79.1 120.5 78.6 124.8 C78.5 126.1 78.3 127.4 78.2 128.7 C76.2 144.4 70.5 158.9 58.2 169.3 C34.6 186.8 -2.2 185.1 -29.9 181.2 C-44.6 179 -58.4 173.7 -68.3 162.3 C-72.7 156.2 -75.1 149.3 -77.5 142.3 C-78.1 142.3 -78.1 142.3 -80.8 142.1 C-81.5 142 -81.5 142 -85.2 141.6 C-86.6 141.5 -88 141.4 -89.4 141.2 C-95.1 140 -98 137.3 -101.5 132.8 C-113.9 112.8 -115.1 91.3 -110.5 68.3 C-106.8 54 -99.7 43.7 -87.5 35.3 C-86.7 34.9 -85.8 34.4 -84.9 34 C-81.8 31.8 -80.8 29.5 -79.2 26.1 C-73.7 15.5 -66.8 10.9 -55.5 7.3 C-52.1 6.3 -48.7 5.5 -45.3 4.6 C-44.5 4.4 -43.6 4.2 -42.8 4 C-28.6 0.7 -14.5 -0 0 0 Z " fill="#FFFFFF" transform="translate(137.534912109375,355.684326171875)"/><path d="M0 0 C2.8 0 5.5 -0 8.3 -0 C29.7 -0.1 58.3 1.4 74.8 16.5 C86.9 29.3 83.9 49.3 83.6 65.8 C83.2 79.7 81.9 93.5 80.5 107.3 C80.3 108.8 80.2 110.3 80 111.9 C79.6 116.2 79.1 120.5 78.6 124.8 C78.5 126.1 78.3 127.4 78.2 128.7 C76.2 144.4 70.5 158.9 58.2 169.3 C34.6 186.8 -2.2 185.1 -29.9 181.2 C-44.6 179 -58.4 173.7 -68.3 162.3 C-72.7 156.2 -75.1 149.3 -77.5 142.3 C-78.1 142.3 -78.1 142.3 -80.8 142.1 C-81.5 142 -81.5 142 -85.2 141.6 C-86.6 141.5 -88 141.4 -89.4 141.2 C-95.1 140 -98 137.3 -101.5 132.8 C-113.9 112.8 -115.1 91.3 -110.5 68.3 C-106.8 54 -99.7 43.7 -87.5 35.3 C-86.7 34.9 -85.8 34.4 -84.9 34 C-81.8 31.8 -80.8 29.5 -79.2 26.1 C-73.7 15.5 -66.8 10.9 -55.5 7.3 C-52.1 6.3 -48.7 5.5 -45.3 4.6 C-44.5 4.4 -43.6 4.2 -42.8 4 C-28.6 0.7 -14.5 -0 0 0 Z M-68.4 26.1 C-72.9 32.8 -73.9 39.3 -73.8 47.2 C-73.8 48.1 -73.8 49 -73.8 49.9 C-73.6 63 -72.7 76 -71.9 89 C-71.7 93.6 -71.4 98.1 -71.1 102.7 C-68.4 149.3 -68.4 149.3 -58.3 159.9 C-45.7 170.8 -27.7 173.9 -11.5 174.3 C-10.3 174.4 -9.1 174.4 -7.8 174.4 C14 174.8 40.5 173.5 57.5 158 C68.9 143.9 69.6 124.8 71.5 107.3 C71.6 106.3 71.7 105.3 71.8 104.3 C73.5 87.6 73.7 70.8 73.8 53.9 C73.8 52.9 73.8 51.8 73.8 50.7 C73.8 47.6 73.8 44.5 73.8 41.4 C73.8 40.5 73.8 39.6 73.9 38.6 C73.8 33.4 73.3 29.7 70.5 25.3 C60.4 16 46.6 13.4 33.5 11.3 C32.2 11.1 31 10.9 29.7 10.7 C0.3 6.6 -45.4 3.6 -68.4 26.1 Z " fill="#0C0C0C" transform="translate(137.534912109375,355.684326171875)"/><path d="M0 0 C0.3 0.5 0.3 0.5 2 3 C0.7 8.2 -0.6 9.1 -5 12 C-35 24.6 -83.6 24.5 -114.2 12.8 C-118.7 10.7 -121 9 -124 5 C-123.4 2.4 -123.4 2.4 -122 0 C-93.9 -18 -28.3 -17.2 0 0 Z " fill="#0C0C0C" transform="translate(199,388)"/><path d="M0 0 C1.1 3.2 1.2 5.6 1.2 8.9 C1.2 10.2 1.3 11.4 1.3 12.7 C1.3 14.1 1.3 15.5 1.4 16.9 C1.7 31.3 2.5 45.7 3.5 60.1 C3.5 60.6 3.5 60.6 3.7 63 C4.8 79.6 4.8 79.6 5.6 85.5 C5.7 86.7 5.9 87.8 6 89 C5.7 89.3 5.3 89.7 5 90 C-2.4 89.9 -7.6 88.2 -13 83 C-22.4 70.2 -22.3 51.7 -20.5 36.7 C-18.7 26.6 -14.1 0 0 0 Z " fill="#8DAA3F" transform="translate(55,399)"/><path d="M0 0 C3 0 6 0 9 -0 C37.4 -0 37.4 -0 49.1 4.3 C49.1 5.3 49.1 6.2 49.1 7.3 C47.2 7.8 45.3 8.2 43.4 8.7 C42.3 9 41.3 9.2 40.2 9.5 C29.2 11.6 18.2 11.4 7.1 11.4 C4.5 11.4 1.9 11.5 -0.7 11.5 C-13.9 11.5 -27.1 11.2 -39.9 7.3 C-39.9 6.3 -39.9 5.3 -39.9 4.3 C-27.7 -1.1 -13.1 -0.1 0 0 Z " fill="#7A221E" transform="translate(130.85107421875,386.7392578125)"/></svg>